<svg xmlns="http://www.w3.org/2000/svg" viewBox="-3 -3 81 81"><defs><linearGradient id="cg" x1="37.3118" y1="41.2683" x2="37.3118" y2="0" gradientUnits="userSpaceOnUse"><stop stop-color="#ED3C78"/><stop offset=".25" stop-color="#F36F61"/><stop offset=".48" stop-color="#F8994E"/><stop offset=".69" stop-color="#FBB741"/><stop offset=".87" stop-color="#FEC939"/><stop offset="1" stop-color="#FFD037"/></linearGradient></defs><path d="M36.4412 12.6889C36.4412 12.6889 36.4412 12.6714 36.4412 12.6656V12.3221C36.4529 11.862 36.8353 11.4894 37.3 11.4952C37.7589 11.4952 38.1295 11.8679 38.1354 12.3221V12.6656C38.1471 13.1315 37.7706 13.51 37.3 13.5158C36.8294 13.5158 36.447 13.1489 36.4412 12.6889ZM17.7461 28.3994C18.099 28.6789 18.6226 28.6323 18.9167 28.2888C19.2167 27.9394 19.1755 27.4095 18.8167 27.1125L18.552 26.8913C18.552 26.8913 18.5402 26.8796 18.5343 26.8796C18.1696 26.5885 17.6402 26.6467 17.346 27.0077C17.0519 27.3688 17.1107 27.8928 17.4755 28.184L17.7461 28.3994ZM3.94534 16.567C3.94534 16.567 3.97475 16.5903 3.9924 16.602C4.17476 16.7301 4.4336 16.6893 4.5689 16.5088C4.69832 16.3283 4.65714 16.0721 4.47478 15.9382L3.06882 14.9482C2.95117 14.8667 2.79233 14.8784 2.69233 14.9832C2.58056 15.0996 2.58644 15.2802 2.70409 15.385L3.95122 16.5612L3.94534 16.567ZM37.2824 17.9413C37.753 17.9413 38.1354 17.5686 38.1412 17.1028V15.3966L38.1471 15.3908C38.1471 14.9191 37.7589 14.5406 37.2824 14.5406C36.8059 14.5406 36.4235 14.925 36.4235 15.3966V17.1028C36.4353 17.5686 36.8118 17.9413 37.2824 17.9413ZM26.6936 35.2007C26.8701 34.9678 27.0583 34.7407 27.2524 34.5194C27.023 34.3098 26.7936 34.0943 26.5642 33.8847C26.5524 33.8731 26.5348 33.8556 26.5171 33.844C26.2936 33.6809 25.9818 33.7333 25.8171 33.9546C25.6524 34.1759 25.7053 34.4845 25.9288 34.6475C26.1818 34.8339 26.4406 35.0144 26.6936 35.2007ZM21.2521 31.1479C21.5639 31.3925 22.0228 31.3517 22.2816 31.0489C22.5522 30.7403 22.5228 30.2686 22.2051 30.0008L20.905 28.8827C20.905 28.8827 20.8815 28.8653 20.8756 28.8594C20.5286 28.5916 20.0285 28.6498 19.7579 28.9934C19.4873 29.3369 19.5462 29.8319 19.8932 30.0997L21.2462 31.1537L21.2521 31.1479ZM12.9635 22.3493L12.6929 22.1339C12.3517 21.8602 11.8457 21.9068 11.5575 22.2387C11.2634 22.5822 11.3045 23.0947 11.6457 23.3858L11.9105 23.6071C11.9105 23.6071 11.9281 23.6187 11.934 23.6245C12.2928 23.9041 12.8105 23.8458 13.0929 23.4964C13.3752 23.1412 13.3164 22.6288 12.9635 22.3493ZM23.717 33.0171C23.9758 33.2151 24.3523 33.1801 24.5758 32.9356C24.8111 32.6735 24.7876 32.2776 24.5288 32.0446L24.2699 31.8175C24.2699 31.8175 24.2405 31.7942 24.2287 31.7826C23.9405 31.5672 23.5346 31.6254 23.3169 31.9049C23.0993 32.1902 23.1581 32.592 23.4405 32.8075L23.717 33.0113V33.0171ZM6.22193 18.6575C6.22193 18.6575 6.25722 18.6866 6.27487 18.6983C6.53959 18.8904 6.90431 18.8322 7.09844 18.576C7.29257 18.314 7.23374 17.9529 6.97491 17.7608L6.69842 17.557C6.469 17.3881 6.13957 17.4172 5.93956 17.6268C5.72778 17.8539 5.73955 18.215 5.96897 18.4246L6.22193 18.6575ZM9.59857 21.6331C9.928 21.8893 10.4045 21.8311 10.6633 21.505C10.9222 21.1789 10.8633 20.7072 10.5339 20.451C10.081 20.1016 9.62799 19.7522 9.16914 19.4087C8.88089 19.1991 8.47498 19.2282 8.22791 19.496C7.96908 19.7814 7.99261 20.2181 8.27497 20.4743C8.69853 20.8586 9.13384 21.2313 9.56916 21.604C9.58092 21.6098 9.59269 21.6214 9.60445 21.6331H9.59857ZM50.9007 33.0171L51.1772 32.8133C51.1772 32.8133 51.2066 32.79 51.2184 32.7783C51.489 32.5396 51.5067 32.132 51.2713 31.8699C51.0302 31.6021 50.6184 31.5846 50.3536 31.8175L50.0948 32.0446C49.8536 32.2601 49.8124 32.6328 50.0125 32.8948C50.2242 33.1743 50.6242 33.2267 50.9066 33.0171H50.9007ZM53.3656 31.1479L54.7186 30.0939C54.7186 30.0939 54.7421 30.0765 54.748 30.0706C55.0774 29.7853 55.1127 29.2845 54.8245 28.9584C54.5362 28.6323 54.0303 28.5974 53.7009 28.8827L52.4008 30.0008C52.1008 30.257 52.0537 30.7112 52.3008 31.0198C52.5596 31.3459 53.0303 31.3983 53.3597 31.1479H53.3656ZM70.6782 16.567L71.9254 15.3908C72.0254 15.2918 72.043 15.1346 71.9607 15.0181C71.8665 14.89 71.6901 14.8609 71.5606 14.9541L70.1547 15.944C70.1547 15.944 70.1253 15.9673 70.1076 15.9789C69.9429 16.1361 69.937 16.3924 70.0959 16.5554C70.2547 16.7184 70.5135 16.7243 70.6782 16.567ZM37.3059 10.4121C37.7471 10.4005 38.1001 10.0394 38.0883 9.60271L38.0471 7.89657C38.0354 7.5006 37.7118 7.16869 37.3059 7.16287C36.8882 7.15122 36.5353 7.48313 36.5294 7.89657L36.4882 9.60271C36.4882 9.60271 36.4882 9.626 36.4882 9.64347C36.5 10.0802 36.8647 10.4296 37.3118 10.4179L37.3059 10.4121ZM56.8716 28.3994L57.1422 28.184C57.1422 28.184 57.154 28.1723 57.1599 28.1723C57.5187 27.8754 57.5599 27.3455 57.2599 26.9903C56.9599 26.635 56.4246 26.5943 56.0657 26.8913L55.801 27.1125C55.4539 27.4037 55.401 27.9161 55.6892 28.2713C55.9834 28.6323 56.5128 28.6848 56.8716 28.3994ZM47.9241 35.2007C48.1771 35.0144 48.4359 34.8339 48.6889 34.6475C48.7065 34.6359 48.7183 34.6242 48.7359 34.6068C48.9359 34.4204 48.9477 34.106 48.7594 33.908C48.5712 33.71 48.2535 33.6984 48.0535 33.8847C47.8241 34.0943 47.5947 34.3098 47.3653 34.5194C47.5594 34.7407 47.7417 34.9678 47.9241 35.2007ZM37.3177 2.6442C37.6059 2.62673 37.8236 2.38217 37.8059 2.10266L37.7059 0.396515C37.6942 0.186887 37.5236 0.0121959 37.3059 0.000549882C37.0706 -0.0110962 36.8706 0.163594 36.8588 0.396515L36.7588 2.10266C36.7588 2.10266 36.7588 2.14342 36.7588 2.16089C36.7765 2.44622 37.0235 2.66167 37.3059 2.6442H37.3177ZM38.0412 22.8909C38.0412 22.8909 38.0412 22.8617 38.0412 22.8501C38.0295 22.4367 37.6824 22.1164 37.2706 22.1222C36.8529 22.1339 36.5294 22.4774 36.5353 22.885C36.547 23.4557 36.5706 24.0205 36.5941 24.5912C36.6117 24.9406 36.8941 25.2317 37.2588 25.2492C37.6412 25.2666 37.9648 24.9697 37.9824 24.5912C38.0059 24.0205 38.0236 23.4557 38.0412 22.885V22.8909ZM37.3118 5.85269C37.6765 5.83522 37.9648 5.53242 37.9471 5.17139L37.9353 4.82783C37.9236 4.49592 37.653 4.22224 37.3118 4.21059C36.9529 4.19895 36.6529 4.47263 36.6353 4.82783L36.6235 5.17139C36.6235 5.17139 36.6235 5.20633 36.6235 5.2238C36.6412 5.58483 36.9471 5.87016 37.3118 5.85269ZM37.2588 29.96C37.2588 29.96 37.253 29.96 37.2471 29.96C37.253 29.96 37.2647 29.96 37.2706 29.96H37.2588ZM37.253 26.7166C36.9294 26.734 36.6823 27.0077 36.7 27.328L36.7176 27.6715C36.7353 27.9511 36.9588 28.184 37.253 28.2014C37.5647 28.2189 37.8295 27.9802 37.8471 27.6715L37.8648 27.328C37.8648 27.328 37.8648 27.2872 37.8648 27.2639C37.8471 26.9437 37.5706 26.6991 37.2471 26.7166H37.253ZM38.1118 19.8279C38.1118 19.8279 38.1118 19.8046 38.1118 19.793C38.1001 19.3446 37.7236 18.9836 37.2706 18.9952C36.8176 19.0069 36.4529 19.3796 36.4647 19.8279V20.1715C36.4823 20.6024 36.8353 20.9518 37.2706 20.9634C37.7236 20.9751 38.0942 20.6199 38.1059 20.1715V19.8279H38.1118ZM60.6012 25.3715C60.9601 25.0745 61.013 24.5446 60.713 24.1836C60.413 23.8225 59.8777 23.7701 59.513 24.0671L58.1835 25.1444C57.8187 25.4472 57.7658 25.9887 58.0717 26.3497C58.3776 26.7108 58.9188 26.7632 59.2835 26.4604L60.6071 25.3715H60.6012ZM62.9661 23.3916C63.3014 23.1063 63.3484 22.6113 63.072 22.2678C62.7896 21.9184 62.2719 21.8602 61.919 22.1397L61.6484 22.3551C61.6484 22.3551 61.6307 22.3668 61.6248 22.3726C61.2777 22.6637 61.2366 23.182 61.5307 23.5256C61.8248 23.8691 62.3484 23.9099 62.6955 23.6187L62.9602 23.3975L62.9661 23.3916ZM65.4544 19.4087C64.9956 19.7522 64.5426 20.1016 64.0897 20.451C64.0779 20.4568 64.0661 20.4685 64.0544 20.4801C63.7426 20.7538 63.7073 21.2255 63.9838 21.5399C64.2603 21.8485 64.7367 21.8835 65.0544 21.6098C65.4897 21.2371 65.9192 20.8644 66.3486 20.4801C66.6133 20.2414 66.6604 19.8396 66.4368 19.5484C66.2015 19.2398 65.7662 19.1816 65.4544 19.4087ZM67.9252 17.557L67.6487 17.7608C67.6487 17.7608 67.6134 17.7899 67.5957 17.8015C67.3545 18.0228 67.3428 18.3897 67.5604 18.6226C67.784 18.8613 68.1546 18.873 68.3958 18.6575L68.6487 18.4246C68.8605 18.2324 68.8958 17.9122 68.7193 17.6734C68.5311 17.423 68.1781 17.3706 67.9252 17.5511V17.557ZM16.4401 25.1444L15.1106 24.0671C14.7459 23.7759 14.2106 23.8225 13.9106 24.1777C13.6105 24.5388 13.6576 25.0687 14.0223 25.3656L15.3459 26.4545C15.7165 26.7573 16.2577 26.7049 16.5578 26.3381C16.8578 25.9712 16.8048 25.4355 16.4401 25.1385V25.1444ZM18.0049 11.5185C18.0755 11.6117 18.2108 11.6349 18.3049 11.5651C18.399 11.4952 18.4226 11.3613 18.352 11.2681C18.0108 10.8081 17.6696 10.3539 17.3107 9.91133C17.5225 10.4412 17.7519 10.9653 17.9814 11.4835C17.9872 11.4952 17.9931 11.5127 18.0049 11.5243V11.5185ZM5.83955 33.5004C6.36899 33.7217 6.90431 33.9313 7.43375 34.1467C7.45728 34.1584 7.48081 34.1642 7.50435 34.17C7.85731 34.269 8.22791 34.0652 8.32792 33.71C8.42792 33.3606 8.22203 32.9938 7.86319 32.8948C7.31022 32.7434 6.75725 32.5804 6.19839 32.4406C5.92779 32.3707 5.64542 32.5047 5.53365 32.7609C5.41012 33.0462 5.54542 33.3781 5.83367 33.4946L5.83955 33.5004ZM11.2987 35.6142L12.9164 36.1965C12.9164 36.1965 12.934 36.2023 12.9458 36.2081C13.3929 36.3479 13.8694 36.1091 14.0106 35.6666C14.1518 35.224 13.9106 34.7523 13.4635 34.6126L11.8222 34.0885C11.4045 33.9546 10.9516 34.17 10.8045 34.5835C10.6516 35.0027 10.8692 35.4686 11.2928 35.62L11.2987 35.6142ZM16.8284 37.5183L18.4696 38.0424C18.8873 38.1763 19.3403 37.9608 19.4932 37.5474C19.6462 37.1281 19.4285 36.6623 19.0049 36.5109L17.3872 35.9286C17.3872 35.9286 17.3696 35.9228 17.3578 35.9169C16.9107 35.7772 16.4342 36.0159 16.293 36.4585C16.1519 36.901 16.393 37.3727 16.8401 37.5125L16.8284 37.5183ZM26.2642 26.8156C26.4877 27.1882 26.976 27.3163 27.3642 27.1067C27.7583 26.8913 27.8995 26.3963 27.6819 26.0062L26.8465 24.5155C26.8465 24.5155 26.8348 24.498 26.8289 24.4922C26.5877 24.0962 26.0641 23.9681 25.6641 24.2069C25.2641 24.4456 25.1347 24.9638 25.3759 25.3598L26.2642 26.8214V26.8156ZM23.2993 21.8194C23.2993 21.8194 23.3111 21.8369 23.3111 21.8427C23.5522 22.2387 24.0758 22.3668 24.4758 22.128C24.8758 21.8893 25.0053 21.371 24.7641 20.9751L23.8758 19.5135C23.6464 19.1408 23.164 19.0127 22.7757 19.2223C22.3816 19.4378 22.2404 19.9328 22.4581 20.3229L23.2934 21.8136L23.2993 21.8194ZM22.4228 39.2302C22.9757 39.3816 23.5287 39.5389 24.0876 39.6844C24.217 39.7194 24.3582 39.7019 24.4758 39.6495C24.5464 39.3875 24.6288 39.1254 24.717 38.8692C24.6582 38.7644 24.5758 38.6771 24.4523 38.6247C23.9228 38.4034 23.3875 38.1937 22.8581 37.9783C22.8346 37.9667 22.811 37.9608 22.7875 37.955C22.4345 37.856 22.0639 38.0598 21.9639 38.415C21.8639 38.7644 22.0698 39.1313 22.4287 39.2302H22.4228ZM29.4173 31.7069C29.5702 31.934 29.8761 32.0213 30.1349 31.8932C30.4173 31.7593 30.535 31.4216 30.3997 31.1421C30.1467 30.6296 29.882 30.123 29.6231 29.6164C29.6114 29.5931 29.5996 29.5699 29.5879 29.5524C29.3878 29.2496 28.9702 29.1622 28.6643 29.366C28.3584 29.564 28.2701 29.9775 28.476 30.2803C28.7937 30.7578 29.1055 31.2352 29.429 31.7069H29.4173ZM2.08641 31.8641C2.20407 31.8874 2.31584 31.8175 2.34525 31.7011C2.36878 31.5846 2.29819 31.474 2.18054 31.4449C1.6158 31.3168 1.05107 31.2003 0.480448 31.0955C0.998122 31.3575 1.5158 31.6079 2.03935 31.8467C2.05112 31.8525 2.06877 31.8583 2.08053 31.8641H2.08641ZM46.8182 27.7764C47.2005 28.0093 47.6947 27.8928 47.93 27.5201C48.23 27.0368 48.5241 26.5477 48.8242 26.0644C48.8242 26.0586 48.8359 26.0469 48.8359 26.0411C49.0595 25.6393 48.9183 25.1327 48.5124 24.9056C48.1065 24.6843 47.5947 24.8241 47.3653 25.2259C47.0829 25.7208 46.8005 26.2158 46.5299 26.7166C46.3299 27.0834 46.4476 27.5551 46.8182 27.7764ZM49.7477 22.8501C50.1595 23.0772 50.6772 22.9316 50.9066 22.5298L51.7478 21.045C51.9655 20.6606 51.8361 20.1657 51.4478 19.9386C51.0537 19.7057 50.5478 19.8338 50.3125 20.2239L49.4301 21.6855C49.4301 21.6855 49.4242 21.703 49.4183 21.703C49.1889 22.1106 49.3359 22.623 49.7418 22.8501H49.7477ZM51.7596 37.9783C51.2243 38.1937 50.6948 38.4034 50.1654 38.6247C50.0477 38.6712 49.9595 38.7586 49.9007 38.8634C49.9889 39.1196 50.0713 39.3758 50.1419 39.6379C50.2595 39.6961 50.3948 39.7194 50.5301 39.6844C51.089 39.5389 51.6361 39.3816 52.1949 39.2302C52.2185 39.2244 52.242 39.2128 52.2655 39.207C52.6067 39.0672 52.7714 38.6829 52.6302 38.3451C52.4891 38.0074 52.1008 37.8444 51.7596 37.9841V37.9783ZM44.8592 32.2892C45.1534 31.8583 45.4416 31.4216 45.7299 30.9848C45.7416 30.9674 45.7593 30.9383 45.7711 30.9208C45.9358 30.6005 45.8064 30.2104 45.4769 30.0473C45.1534 29.8843 44.7592 30.0124 44.5945 30.3385C44.3651 30.7927 44.1298 31.2469 43.9004 31.7069C44.2298 31.8932 44.5475 32.0854 44.8592 32.295V32.2892ZM43.6886 6.97071C43.9239 6.98818 44.1239 6.80766 44.1416 6.57474L44.2533 4.8686C44.2651 4.73467 44.1769 4.61238 44.0416 4.58327C43.8945 4.54833 43.7415 4.6415 43.7062 4.78707L43.3062 6.45246C43.3062 6.45246 43.2945 6.49904 43.2945 6.52233C43.2768 6.75525 43.4592 6.95324 43.6945 6.97071H43.6886ZM61.7013 36.1965L63.319 35.6142C63.7308 35.4686 63.9544 35.0202 63.8191 34.6068C63.6779 34.1817 63.219 33.9488 62.7896 34.0827L61.1483 34.6068C61.1483 34.6068 61.1307 34.6126 61.1189 34.6184C60.6777 34.7756 60.4483 35.2589 60.613 35.6898C60.7718 36.1266 61.2601 36.3537 61.6954 36.1906L61.7013 36.1965ZM55.901 12.3628C56.0481 12.4327 56.2245 12.3686 56.2951 12.2231C56.4187 11.9669 56.5304 11.7048 56.6481 11.4428C56.7658 11.1808 56.8834 10.9245 56.9952 10.6567C57.0128 10.6159 56.9952 10.5635 56.9599 10.5286C56.9128 10.4936 56.8422 10.4995 56.8069 10.546C56.6304 10.7731 56.4657 11.0061 56.2893 11.2332C56.1187 11.4661 55.9422 11.6932 55.7833 11.9261C55.7775 11.9377 55.7657 11.9552 55.7598 11.9669C55.6892 12.1124 55.7539 12.2871 55.901 12.357V12.3628ZM40.1119 29.9134C40.4002 29.9775 40.6884 29.797 40.7531 29.5116C40.8826 28.9584 40.9943 28.3994 41.1061 27.8404C41.1061 27.8229 41.112 27.8055 41.112 27.788C41.1473 27.4445 40.9002 27.1358 40.5531 27.1009C40.2061 27.066 39.8943 27.3105 39.859 27.6541C39.8002 28.2189 39.7413 28.7837 39.7001 29.3544C39.6825 29.6106 39.8531 29.8552 40.1178 29.9134H40.1119ZM42.7533 12.9975C43.1592 13.0499 43.5356 12.7588 43.5827 12.357C43.6533 11.7922 43.7062 11.2273 43.7651 10.6625C43.8004 10.3248 43.5709 10.0103 43.2297 9.94045C42.865 9.87057 42.5121 10.1035 42.4415 10.4645C42.3297 11.0235 42.212 11.5767 42.112 12.1416C42.112 12.1532 42.112 12.1707 42.1062 12.1823C42.0532 12.5841 42.3473 12.9568 42.7533 13.0034V12.9975ZM32.4409 22.1455L32.7351 23.8225C32.8057 24.236 33.1939 24.5213 33.6175 24.4689C34.0528 24.4107 34.3587 24.0205 34.3057 23.5896L34.0822 21.9009C34.0822 21.9009 34.0822 21.8776 34.0822 21.866C34.0057 21.4176 33.5763 21.1207 33.1233 21.1964C32.6704 21.272 32.3703 21.6971 32.4468 22.1455H32.4409ZM31.5527 16.4156L31.7938 18.1043V18.116C31.8703 18.576 32.3056 18.8963 32.7763 18.8206C33.241 18.7449 33.5645 18.314 33.4881 17.8481L33.2175 16.1653C33.1469 15.7169 32.7233 15.4024 32.2645 15.4723C31.8056 15.5364 31.4821 15.9615 31.5468 16.4156H31.5527ZM30.8467 10.6625C30.9056 11.2273 30.9585 11.7922 31.0291 12.357C31.0291 12.3686 31.0291 12.3861 31.035 12.3978C31.1056 12.7996 31.4938 13.0674 31.8997 12.9917C32.3056 12.9218 32.5762 12.5375 32.4998 12.1357C32.3998 11.5767 32.2821 11.0177 32.1703 10.4587C32.0997 10.1268 31.788 9.89386 31.4409 9.9288C31.0703 9.96956 30.8056 10.2957 30.8409 10.6567L30.8467 10.6625ZM33.5116 27.8462C33.6234 28.4053 33.741 28.9643 33.8645 29.5174C33.9234 29.7678 34.1587 29.9484 34.4293 29.9309C34.7234 29.9076 34.947 29.6514 34.9234 29.3602C34.8764 28.7896 34.8234 28.2247 34.7646 27.6599C34.7646 27.6424 34.7646 27.625 34.7587 27.6075C34.694 27.2698 34.3587 27.0485 34.0175 27.1125C33.6763 27.1766 33.4528 27.5085 33.5175 27.8462H33.5116ZM30.482 6.65044C30.535 6.87754 30.7644 7.01729 30.9938 6.96488C31.2232 6.91248 31.3644 6.68538 31.3115 6.45828L30.9115 4.7929C30.882 4.66479 30.7585 4.57162 30.6232 4.58327C30.4703 4.59491 30.3526 4.72302 30.3644 4.87442L30.4761 6.58056C30.4761 6.58056 30.4761 6.62715 30.4879 6.65044H30.482ZM41.8532 18.8206C42.3238 18.8846 42.7533 18.5643 42.8238 18.0985L43.065 16.4098C43.1297 15.9615 42.818 15.5364 42.365 15.4665C41.9061 15.3966 41.4708 15.7052 41.4002 16.1594L41.1296 17.8423V17.8539C41.059 18.3198 41.3885 18.7449 41.8532 18.8147V18.8206ZM40.9649 24.4631C41.3944 24.5388 41.8061 24.2476 41.8826 23.8225L42.1767 22.1455C42.1767 22.1455 42.1767 22.1222 42.1767 22.1106C42.2356 21.6622 41.912 21.2488 41.4591 21.1905C41.0061 21.1323 40.5884 21.4526 40.5296 21.9009L40.3061 23.5896C40.2531 24.003 40.5355 24.3932 40.959 24.4631H40.9649ZM56.1539 38.0424L57.7952 37.5183C57.7952 37.5183 57.8129 37.5125 57.8246 37.5066C58.2658 37.3494 58.4953 36.8661 58.3364 36.4294C58.1776 35.9926 57.6893 35.7655 57.2481 35.9228L55.6304 36.5051C55.2186 36.6506 54.9951 37.099 55.1304 37.5183C55.2716 37.9434 55.7304 38.1763 56.1598 38.0424H56.1539ZM54.2891 15.1404C54.0068 14.9541 53.6303 15.0356 53.442 15.3093C53.1244 15.7868 52.8126 16.2584 52.5008 16.7417C52.4891 16.7592 52.4773 16.7767 52.4714 16.7941C52.2949 17.1319 52.4243 17.5511 52.7655 17.7258C53.1067 17.9005 53.5303 17.7724 53.7068 17.4347C53.9715 16.9339 54.2362 16.4215 54.495 15.9149C54.6303 15.647 54.548 15.3093 54.2891 15.1404ZM72.5725 31.8467C73.096 31.6079 73.6137 31.3575 74.1314 31.0955C73.5607 31.2003 72.996 31.3226 72.4313 31.4449C72.4195 31.4449 72.4019 31.4507 72.3901 31.4623C72.2842 31.5147 72.2371 31.637 72.2842 31.7477C72.3372 31.8525 72.4607 31.8991 72.5725 31.8525V31.8467ZM67.1781 34.1467C67.7134 33.9313 68.2428 33.7217 68.7723 33.5004C69.0252 33.3956 69.1723 33.1161 69.0958 32.8424C69.0134 32.5454 68.7076 32.3649 68.4016 32.4406C67.8428 32.5862 67.2957 32.7434 66.7369 32.8948C66.7133 32.9006 66.6898 32.9123 66.6663 32.9181C66.3251 33.0578 66.1604 33.4422 66.3015 33.7799C66.4427 34.1176 66.831 34.2807 67.1722 34.1409L67.1781 34.1467ZM20.558 16.7825C20.758 17.0911 21.1756 17.1726 21.4874 16.9747C21.7992 16.7767 21.8816 16.3632 21.6816 16.0546C21.3639 15.5771 21.0521 15.0996 20.7286 14.628C20.5697 14.4009 20.2697 14.3135 20.0109 14.4358C19.7285 14.5697 19.6109 14.9075 19.7462 15.187C19.9991 15.6994 20.2638 16.206 20.5227 16.7126C20.5344 16.7359 20.5462 16.7534 20.558 16.7767V16.7825ZM43.0239 31.2469C43.2533 30.7112 43.4768 30.1696 43.7004 29.6281C44.1886 28.4868 44.6239 27.3222 45.0887 26.1692L46.4064 22.687L47.6535 19.1758C48.0418 17.9995 48.4594 16.8291 48.8242 15.6412C49.583 13.277 50.2948 10.8954 50.8772 8.46722C49.7536 10.7033 48.7594 12.9801 47.8123 15.2802C47.3241 16.4215 46.8888 17.5861 46.424 18.739L45.1122 22.2212L43.871 25.7325C43.4768 26.9087 43.065 28.0792 42.7003 29.2671C42.5297 29.8028 42.3591 30.3443 42.1944 30.88C42.4768 30.9907 42.7533 31.113 43.0297 31.2411L43.0239 31.2469ZM17.5813 21.9184L20.3227 25.0512L23.1228 28.1374C24.0758 29.1506 25.0111 30.1754 25.9818 31.1712C26.7348 31.9515 27.4936 32.7259 28.2584 33.4946C28.4466 33.3257 28.629 33.1452 28.8231 32.988C28.1466 32.1436 27.476 31.2993 26.7818 30.4724C25.9053 29.3952 24.9935 28.3528 24.0993 27.2872L21.358 24.1544L18.5579 21.0741C17.6049 20.0609 16.6695 19.036 15.6989 18.0403C13.7753 16.0372 11.8163 14.0631 9.7574 12.1765C11.3928 14.4358 13.1282 16.602 14.8988 18.7449C15.7754 19.8221 16.6872 20.8703 17.5813 21.93V21.9184ZM26.9701 19.1816L28.2172 22.6929L29.5349 26.175C29.9938 27.328 30.435 28.4868 30.9232 29.6339C31.1468 30.1754 31.3703 30.7112 31.5997 31.2527C31.8762 31.1246 32.1527 31.0023 32.4351 30.8917C32.2703 30.3501 32.0997 29.8144 31.9292 29.2787C31.5644 28.0908 31.1468 26.9204 30.7585 25.7441L29.5173 22.2328L28.2054 18.7507C27.7407 17.5977 27.3054 16.4389 26.8171 15.2918C25.87 12.9975 24.8758 10.7149 23.7523 8.47887C24.3346 10.9071 25.0464 13.2887 25.8053 15.6528C26.17 16.8407 26.5877 18.0112 26.976 19.1874L26.9701 19.1816ZM58.8011 30.9266L55.0715 33.087C53.8421 33.8323 52.6008 34.5544 51.3831 35.3172C50.5831 35.8121 49.7889 36.3071 48.9948 36.8137C49.1301 37.0524 49.2418 37.3028 49.3595 37.5532C50.2125 37.1223 51.0654 36.6856 51.9184 36.2372C53.2009 35.5792 54.4539 34.8805 55.7245 34.205L59.4894 32.1029L63.219 29.9367C64.4485 29.1914 65.6897 28.4693 66.9075 27.7065C69.3546 26.1983 71.7783 24.6494 74.1314 22.984C71.49 24.1603 68.9193 25.453 66.3721 26.7864C65.0897 27.4445 63.8367 28.1432 62.5661 28.8187L58.8011 30.9208V30.9266ZM47.8359 30.4666C47.1476 31.2993 46.4711 32.1378 45.7946 32.9821C45.9887 33.1452 46.1711 33.3199 46.3593 33.4887C47.1241 32.7201 47.8888 31.9456 48.6359 31.1654C49.6065 30.1696 50.5419 29.1448 51.4949 28.1316L54.295 25.0454L57.0364 21.9126C57.9305 20.8528 58.8423 19.8046 59.7188 18.7274C61.4895 16.5903 63.2249 14.4184 64.8603 12.159C62.8014 14.0457 60.8424 16.0197 58.9188 18.0228C57.9482 19.0185 57.0128 20.0434 56.0598 21.0566L53.2597 24.137L50.5184 27.2698C49.6242 28.3296 48.7065 29.3719 47.8359 30.455V30.4666ZM56.1069 40.6976L59.8306 40.2202L63.5485 39.6728C64.7838 39.4632 66.0251 39.2827 67.2545 39.0497C69.7194 38.6072 72.1783 38.118 74.6196 37.495C72.1018 37.5532 69.5958 37.7512 67.1016 37.9958C65.8545 38.1064 64.6132 38.2636 63.3661 38.3976L59.6424 38.875L55.9245 39.4224C54.6892 39.632 53.4538 39.8125 52.2184 40.0455C51.589 40.1561 50.9654 40.2726 50.336 40.3949C50.4007 40.6802 50.4419 40.9772 50.4831 41.2683C51.1125 41.2159 51.742 41.1577 52.3655 41.0936C53.6126 40.983 54.8598 40.8258 56.101 40.6918L56.1069 40.6976ZM11.3987 29.9425L15.1283 32.1087L18.8932 34.2108C20.1638 34.8863 21.4168 35.5909 22.6993 36.243C23.5464 36.6856 24.3993 37.1223 25.2582 37.559C25.3759 37.3087 25.4935 37.0583 25.6229 36.8195C24.8288 36.3129 24.0346 35.818 23.2346 35.323C22.0169 34.5544 20.7756 33.8381 19.5462 33.0928L15.8165 30.9324L12.0516 28.8303C10.7869 28.149 9.52798 27.4503 8.24556 26.7981C5.69837 25.4646 3.12765 24.1719 0.486331 22.9957C2.8394 24.661 5.26305 26.21 7.71024 27.7181C8.92795 28.4809 10.1692 29.2088 11.3987 29.9484V29.9425ZM11.0692 39.6728L14.7871 40.2202L18.5108 40.6976C19.7579 40.8316 20.9992 40.9888 22.2463 41.0994C22.8757 41.1577 23.4993 41.2159 24.1287 41.2741C24.1699 40.983 24.2111 40.686 24.2758 40.4007C23.6464 40.2784 23.0228 40.1678 22.3934 40.0513C21.1639 39.8184 19.9226 39.632 18.6873 39.4282L14.9694 38.8809L11.2457 38.4034C9.99859 38.2694 8.75735 38.1122 7.51023 38.0016C5.01598 37.757 2.51585 37.5649 -0.0078125 37.5008C2.43349 38.1239 4.89244 38.613 7.35728 39.0556C8.58675 39.2885 9.828 39.4748 11.0634 39.6786L11.0692 39.6728Z" fill="url(#cg)"/></svg>